<svg width="256" height="272" viewBox="0 0 256 272" fill="none" xmlns="http://www.w3.org/2000/svg">
<path d="M0.0996094 45.5222L125.908 0.697266L255.104 44.7253L234.185 211.175L125.908 271.141L19.3245 211.972L0.0996094 45.5222Z" fill="#E23237"/>
<path d="M255.104 44.7253L125.908 0.697266V271.141L234.185 211.275L255.104 44.7253Z" fill="#B52E31"/>
<path d="M50.9062 136.75H61.0312C60.8646 139.875 60.0104 142.635 58.4688 145.031C56.9479 147.406 54.8333 149.271 52.125 150.625C49.4167 151.958 46.1979 152.625 42.4688 152.625C39.4896 152.625 36.8229 152.115 34.4688 151.094C32.1146 150.073 30.1146 148.615 28.4688 146.719C26.8438 144.802 25.5938 142.5 24.7188 139.812C23.8646 137.104 23.4375 134.052 23.4375 130.656V127.875C23.4375 124.479 23.8854 121.427 24.7812 118.719C25.6771 116.01 26.9583 113.698 28.625 111.781C30.2917 109.865 32.2917 108.396 34.625 107.375C36.9583 106.354 39.5625 105.844 42.4375 105.844C46.3125 105.844 49.5833 106.542 52.25 107.938C54.9167 109.333 56.9792 111.25 58.4375 113.688C59.9167 116.125 60.8021 118.906 61.0938 122.031H50.9375C50.8542 120.26 50.5208 118.771 49.9375 117.562C49.3542 116.333 48.4583 115.406 47.25 114.781C46.0417 114.156 44.4375 113.844 42.4375 113.844C40.9792 113.844 39.6979 114.115 38.5938 114.656C37.5104 115.198 36.6042 116.042 35.875 117.188C35.1667 118.333 34.6354 119.792 34.2812 121.562C33.9271 123.312 33.75 125.396 33.75 127.812V130.656C33.75 133.052 33.9062 135.125 34.2188 136.875C34.5312 138.625 35.0312 140.073 35.7188 141.219C36.4271 142.365 37.3333 143.219 38.4375 143.781C39.5417 144.344 40.8854 144.625 42.4688 144.625C44.2812 144.625 45.7917 144.344 47 143.781C48.2083 143.198 49.1354 142.323 49.7812 141.156C50.4271 139.99 50.8021 138.521 50.9062 136.75ZM66.6875 106.5H84.1562C87.6354 106.5 90.6458 107.021 93.1875 108.062C95.75 109.104 97.7188 110.646 99.0938 112.688C100.469 114.729 101.156 117.25 101.156 120.25C101.156 122.75 100.75 124.875 99.9375 126.625C99.125 128.375 97.9792 129.823 96.5 130.969C95.0417 132.115 93.3333 133.042 91.375 133.75L88.0625 135.562H73.1875L73.125 127.656H84.1875C85.7083 127.656 86.9688 127.385 87.9688 126.844C88.9688 126.302 89.7188 125.542 90.2188 124.562C90.7396 123.562 91 122.396 91 121.062C91 119.688 90.7396 118.5 90.2188 117.5C89.6979 116.5 88.9271 115.74 87.9062 115.219C86.9062 114.677 85.6562 114.406 84.1562 114.406H76.875V152H66.6875V106.5ZM91.875 152L81.6562 131.781L92.4062 131.75L102.781 151.531V152H91.875ZM132.969 106.5H143.156V136.375C143.156 139.917 142.406 142.896 140.906 145.312C139.427 147.729 137.365 149.552 134.719 150.781C132.073 152.01 129.01 152.625 125.531 152.625C122.031 152.625 118.948 152.01 116.281 150.781C113.635 149.552 111.552 147.729 110.031 145.312C108.531 142.896 107.781 139.917 107.781 136.375V106.5H118V136.375C118 138.333 118.292 139.938 118.875 141.188C119.479 142.417 120.344 143.323 121.469 143.906C122.594 144.469 123.948 144.75 125.531 144.75C127.115 144.75 128.458 144.469 129.562 143.906C130.688 143.323 131.531 142.417 132.094 141.188C132.677 139.938 132.969 138.333 132.969 136.375V106.5ZM164.844 152H154.844L154.906 144.125H164.844C167.115 144.125 169.031 143.604 170.594 142.562C172.156 141.5 173.344 139.938 174.156 137.875C174.969 135.792 175.375 133.26 175.375 130.281V128.188C175.375 125.938 175.146 123.958 174.688 122.25C174.229 120.521 173.552 119.073 172.656 117.906C171.76 116.74 170.646 115.865 169.312 115.281C168 114.698 166.49 114.406 164.781 114.406H154.656V106.5H164.781C167.865 106.5 170.677 107.021 173.219 108.062C175.781 109.104 177.99 110.594 179.844 112.531C181.719 114.469 183.167 116.76 184.188 119.406C185.208 122.052 185.719 125 185.719 128.25V130.281C185.719 133.51 185.208 136.458 184.188 139.125C183.167 141.771 181.719 144.062 179.844 146C177.99 147.917 175.792 149.396 173.25 150.438C170.708 151.479 167.906 152 164.844 152ZM160.625 106.5V152H150.438V106.5H160.625ZM199.875 106.5L207.875 122L215.875 106.5H227.5L214.562 129.062L227.844 152H216.125L207.875 136.219L199.656 152H187.906L201.219 129.062L188.25 106.5H199.875Z" fill="white"/>
</svg>
